<mxfile host="Electron" agent="Mozilla/5.0 (Windows NT 10.0; Win64; x64) AppleWebKit/537.36 (KHTML, like Gecko) draw.io/26.2.15 Chrome/134.0.6998.205 Electron/35.2.1 Safari/537.36" version="26.2.15" pages="2">
  <diagram name="Page-1" id="syCoAEvAul0dMTxMKadW">
    <mxGraphModel dx="2580" dy="2588" grid="0" gridSize="10" guides="1" tooltips="1" connect="1" arrows="1" fold="1" page="1" pageScale="1" pageWidth="850" pageHeight="1100" math="0" shadow="0">
      <root>
        <mxCell id="0" />
        <mxCell id="1" parent="0" />
        <mxCell id="TBYeUWe64WOZgzRcPuD7-7" value="Attack Machine&lt;div&gt;&lt;br&gt;&lt;/div&gt;" style="outlineConnect=0;dashed=0;verticalLabelPosition=bottom;verticalAlign=top;align=center;html=1;shape=mxgraph.aws3.management_console;rounded=0;labelBackgroundColor=none;fillColor=#f8cecc;gradientColor=#ea6b66;strokeColor=#b85450;" parent="1" vertex="1">
          <mxGeometry x="-310" y="430" width="63" height="63" as="geometry" />
        </mxCell>
        <mxCell id="feDQqr2N-nm7LxGxzfz5-1" value="VULTR (Virtual Macines)" style="swimlane;whiteSpace=wrap;html=1;labelBackgroundColor=none;fillColor=#FF3399;gradientColor=#1A1A1A;strokeColor=#666666;dashed=1;" parent="1" vertex="1">
          <mxGeometry x="-20" y="20" width="670" height="540" as="geometry" />
        </mxCell>
        <mxCell id="TBYeUWe64WOZgzRcPuD7-4" value="" style="verticalLabelPosition=bottom;html=1;verticalAlign=top;align=center;strokeColor=#6c8ebf;shape=mxgraph.azure.server_rack;direction=east;rounded=0;labelBackgroundColor=none;fillColor=#dae8fc;gradientColor=#7ea6e0;" parent="feDQqr2N-nm7LxGxzfz5-1" vertex="1">
          <mxGeometry x="70" y="410" width="50" height="50" as="geometry" />
        </mxCell>
        <mxCell id="TBYeUWe64WOZgzRcPuD7-3" value="Splunk&lt;div&gt;Ubuntu Server&lt;/div&gt;&lt;p&gt;&lt;br&gt;&lt;/p&gt;" style="verticalLabelPosition=bottom;html=1;verticalAlign=top;align=center;shape=mxgraph.azure.server_rack;rounded=0;labelBackgroundColor=none;fillColor=#dae8fc;gradientColor=#7ea6e0;strokeColor=#6c8ebf;" parent="feDQqr2N-nm7LxGxzfz5-1" vertex="1">
          <mxGeometry x="490" y="40" width="50" height="50" as="geometry" />
        </mxCell>
        <mxCell id="feDQqr2N-nm7LxGxzfz5-86" value="Telemetry" style="endArrow=none;dashed=1;html=1;dashPattern=1 3;strokeWidth=2;rounded=0;exitX=0.941;exitY=0.15;exitDx=0;exitDy=0;exitPerimeter=0;fillColor=#d5e8d4;gradientColor=#97d077;strokeColor=#82b366;" parent="feDQqr2N-nm7LxGxzfz5-1" source="TBYeUWe64WOZgzRcPuD7-4" target="TBYeUWe64WOZgzRcPuD7-3" edge="1">
          <mxGeometry width="50" height="50" relative="1" as="geometry">
            <mxPoint x="460" y="310" as="sourcePoint" />
            <mxPoint x="510" y="260" as="targetPoint" />
          </mxGeometry>
        </mxCell>
        <mxCell id="TBYeUWe64WOZgzRcPuD7-5" value="Domain Controller&lt;div&gt;Windows Server&lt;/div&gt;&lt;div&gt;Domain MyDFIR.local&lt;/div&gt;" style="verticalLabelPosition=bottom;html=1;verticalAlign=top;align=center;strokeColor=#6c8ebf;shape=mxgraph.azure.server_rack;rounded=0;labelBackgroundColor=none;fillColor=#dae8fc;gradientColor=#7ea6e0;" parent="feDQqr2N-nm7LxGxzfz5-1" vertex="1">
          <mxGeometry x="50" y="40" width="50" height="50" as="geometry" />
        </mxCell>
        <mxCell id="feDQqr2N-nm7LxGxzfz5-65" value="" style="endArrow=none;dashed=1;html=1;dashPattern=1 3;strokeWidth=2;rounded=0;edgeStyle=orthogonalEdgeStyle;exitX=0.623;exitY=0.621;exitDx=0;exitDy=0;exitPerimeter=0;fillColor=#d5e8d4;gradientColor=#97d077;strokeColor=#82b366;entryX=0.312;entryY=0.281;entryDx=0;entryDy=0;entryPerimeter=0;" parent="feDQqr2N-nm7LxGxzfz5-1" source="TBYeUWe64WOZgzRcPuD7-5" target="TBYeUWe64WOZgzRcPuD7-3" edge="1">
          <mxGeometry width="50" height="50" relative="1" as="geometry">
            <mxPoint x="440" y="330" as="sourcePoint" />
            <mxPoint x="490" y="280" as="targetPoint" />
          </mxGeometry>
        </mxCell>
        <mxCell id="feDQqr2N-nm7LxGxzfz5-66" value="Telemetry" style="edgeLabel;html=1;align=center;verticalAlign=middle;resizable=0;points=[];" parent="feDQqr2N-nm7LxGxzfz5-65" vertex="1" connectable="0">
          <mxGeometry x="-0.0046" y="-7" relative="1" as="geometry">
            <mxPoint as="offset" />
          </mxGeometry>
        </mxCell>
        <mxCell id="TBYeUWe64WOZgzRcPuD7-6" value="Test Machine&amp;nbsp;&lt;div&gt;Windows Server&amp;nbsp;&lt;/div&gt;&lt;div&gt;Domain MyDFIR.local&lt;/div&gt;&lt;div&gt;&lt;br&gt;&lt;/div&gt;" style="text;html=1;align=center;verticalAlign=middle;resizable=0;points=[];autosize=1;strokeColor=none;fillColor=none;rounded=0;labelBackgroundColor=none;" parent="1" vertex="1">
          <mxGeometry x="10" y="480" width="140" height="70" as="geometry" />
        </mxCell>
        <mxCell id="feDQqr2N-nm7LxGxzfz5-29" value="Slack" style="html=1;verticalLabelPosition=bottom;align=center;labelBackgroundColor=none;verticalAlign=top;strokeWidth=2;shadow=0;dashed=0;shape=mxgraph.ios7.icons.cloud;fontFamily=Helvetica;fontSize=11;fillColor=#e6d0de;gradientColor=#d5739d;strokeColor=#996185;" parent="1" vertex="1">
          <mxGeometry x="690" y="260" width="60" height="40" as="geometry" />
        </mxCell>
        <mxCell id="feDQqr2N-nm7LxGxzfz5-34" value="Shuffle&lt;div&gt;&lt;br&gt;&lt;/div&gt;" style="html=1;verticalLabelPosition=bottom;align=center;labelBackgroundColor=none;verticalAlign=top;strokeWidth=2;shadow=0;dashed=0;shape=mxgraph.ios7.icons.cloud;fontFamily=Helvetica;fontSize=11;fillColor=#ffcd28;gradientColor=#ffa500;strokeColor=#d79b00;" parent="1" vertex="1">
          <mxGeometry x="690" y="80" width="60" height="50" as="geometry" />
        </mxCell>
        <mxCell id="feDQqr2N-nm7LxGxzfz5-39" value="Successful Unauthorized Login Playbook" style="swimlane;fontStyle=0;childLayout=stackLayout;horizontal=1;startSize=30;horizontalStack=0;resizeParent=1;resizeParentMax=0;resizeLast=0;collapsible=1;marginBottom=0;whiteSpace=wrap;html=1;fontFamily=Helvetica;fontSize=11;labelBackgroundColor=none;fillColor=#d80073;strokeColor=#A50040;fontColor=#ffffff;" parent="1" vertex="1">
          <mxGeometry x="700" y="330" width="230" height="100" as="geometry">
            <mxRectangle x="642" y="311" width="210" height="30" as="alternateBounds" />
          </mxGeometry>
        </mxCell>
        <mxCell id="feDQqr2N-nm7LxGxzfz5-40" value="Send an email to SOC Analyst analog if they want to disable domain account&lt;div&gt;If YES-disable domain account&lt;/div&gt;&lt;div&gt;If NO- do nothing&lt;/div&gt;" style="text;strokeColor=#A50040;fillColor=#d80073;align=left;verticalAlign=middle;spacingLeft=4;spacingRight=4;overflow=hidden;points=[[0,0.5],[1,0.5]];portConstraint=eastwest;rotatable=0;whiteSpace=wrap;html=1;fontFamily=Helvetica;fontSize=11;labelBackgroundColor=none;fontColor=#ffffff;" parent="feDQqr2N-nm7LxGxzfz5-39" vertex="1">
          <mxGeometry y="30" width="230" height="30" as="geometry" />
        </mxCell>
        <mxCell id="feDQqr2N-nm7LxGxzfz5-41" value="If YES-disable domain account&lt;div&gt;If NO-do nothing&lt;/div&gt;" style="text;strokeColor=#A50040;fillColor=#d80073;align=left;verticalAlign=middle;spacingLeft=4;spacingRight=4;overflow=hidden;points=[[0,0.5],[1,0.5]];portConstraint=eastwest;rotatable=0;whiteSpace=wrap;html=1;fontFamily=Helvetica;fontSize=11;labelBackgroundColor=none;fontColor=#ffffff;" parent="feDQqr2N-nm7LxGxzfz5-39" vertex="1">
          <mxGeometry y="60" width="230" height="40" as="geometry" />
        </mxCell>
        <mxCell id="feDQqr2N-nm7LxGxzfz5-52" value="SOC&lt;div style=&quot;line-height: 60%;&quot;&gt;Analyst&lt;/div&gt;" style="shape=actor;whiteSpace=wrap;html=1;labelPosition=center;verticalLabelPosition=bottom;align=center;verticalAlign=top;fillColor=#dae8fc;gradientColor=#7ea6e0;strokeColor=#6c8ebf;" parent="1" vertex="1">
          <mxGeometry x="910" y="82" width="30" height="48" as="geometry" />
        </mxCell>
        <mxCell id="feDQqr2N-nm7LxGxzfz5-87" value="" style="endArrow=none;dashed=1;html=1;dashPattern=1 3;strokeWidth=2;rounded=0;exitX=0.693;exitY=0.967;exitDx=0;exitDy=0;exitPerimeter=0;fillColor=#d5e8d4;gradientColor=#97d077;strokeColor=#82b366;entryX=0.34;entryY=0.361;entryDx=0;entryDy=0;entryPerimeter=0;" parent="1" source="TBYeUWe64WOZgzRcPuD7-3" target="feDQqr2N-nm7LxGxzfz5-29" edge="1">
          <mxGeometry width="50" height="50" relative="1" as="geometry">
            <mxPoint x="440" y="330" as="sourcePoint" />
            <mxPoint x="490" y="280" as="targetPoint" />
          </mxGeometry>
        </mxCell>
        <mxCell id="feDQqr2N-nm7LxGxzfz5-89" value="" style="endArrow=none;dashed=1;html=1;dashPattern=1 3;strokeWidth=2;rounded=0;entryX=0.739;entryY=0.692;entryDx=0;entryDy=0;entryPerimeter=0;fillColor=#d5e8d4;strokeColor=#82b366;gradientColor=#97d077;exitX=0.416;exitY=0.372;exitDx=0;exitDy=0;exitPerimeter=0;" parent="1" source="feDQqr2N-nm7LxGxzfz5-34" target="TBYeUWe64WOZgzRcPuD7-3" edge="1">
          <mxGeometry width="50" height="50" relative="1" as="geometry">
            <mxPoint x="440" y="330" as="sourcePoint" />
            <mxPoint x="490" y="280" as="targetPoint" />
          </mxGeometry>
        </mxCell>
        <mxCell id="feDQqr2N-nm7LxGxzfz5-90" value="Yes" style="rhombus;whiteSpace=wrap;html=1;fillColor=#e51400;fontColor=#ffffff;strokeColor=#B20000;" parent="1" vertex="1">
          <mxGeometry x="1120" y="60" width="80" height="80" as="geometry" />
        </mxCell>
        <mxCell id="feDQqr2N-nm7LxGxzfz5-91" value="Disable User?" style="endArrow=none;dashed=1;html=1;dashPattern=1 3;strokeWidth=2;rounded=0;exitX=0.9;exitY=0.5;exitDx=0;exitDy=0;exitPerimeter=0;fillColor=#d5e8d4;gradientColor=#97d077;strokeColor=#82b366;" parent="1" source="feDQqr2N-nm7LxGxzfz5-52" target="feDQqr2N-nm7LxGxzfz5-90" edge="1">
          <mxGeometry width="50" height="50" relative="1" as="geometry">
            <mxPoint x="740" y="350" as="sourcePoint" />
            <mxPoint x="790" y="300" as="targetPoint" />
          </mxGeometry>
        </mxCell>
        <mxCell id="feDQqr2N-nm7LxGxzfz5-92" value="NO" style="rhombus;whiteSpace=wrap;html=1;fillColor=#6d8764;fontColor=#ffffff;strokeColor=#3A5431;" parent="1" vertex="1">
          <mxGeometry x="1120" y="210" width="80" height="80" as="geometry" />
        </mxCell>
        <mxCell id="feDQqr2N-nm7LxGxzfz5-93" value="Disable User?" style="endArrow=none;dashed=1;html=1;dashPattern=1 3;strokeWidth=2;rounded=0;exitX=0.098;exitY=0.555;exitDx=0;exitDy=0;exitPerimeter=0;fillColor=#d5e8d4;strokeColor=#82b366;gradientColor=#97d077;entryX=0.9;entryY=0.5;entryDx=0;entryDy=0;entryPerimeter=0;" parent="1" source="feDQqr2N-nm7LxGxzfz5-92" target="feDQqr2N-nm7LxGxzfz5-52" edge="1">
          <mxGeometry width="50" height="50" relative="1" as="geometry">
            <mxPoint x="1020" y="200" as="sourcePoint" />
            <mxPoint x="970" y="70" as="targetPoint" />
            <Array as="points" />
          </mxGeometry>
        </mxCell>
        <mxCell id="feDQqr2N-nm7LxGxzfz5-97" value="Move Onto Next Step" style="endArrow=none;dashed=1;html=1;dashPattern=1 3;strokeWidth=2;rounded=0;edgeStyle=orthogonalEdgeStyle;fillColor=#e51400;strokeColor=#B20000;" parent="1" target="feDQqr2N-nm7LxGxzfz5-90" edge="1">
          <mxGeometry width="50" height="50" relative="1" as="geometry">
            <mxPoint x="710.0769230769229" y="69.92" as="sourcePoint" />
            <mxPoint x="1050.0769230769229" y="16.99692307692287" as="targetPoint" />
            <Array as="points">
              <mxPoint x="710" y="-30" />
              <mxPoint x="1160" y="-30" />
            </Array>
          </mxGeometry>
        </mxCell>
        <mxCell id="feDQqr2N-nm7LxGxzfz5-98" value="Disable Domain User" style="endArrow=none;dashed=1;html=1;strokeWidth=2;rounded=0;edgeStyle=orthogonalEdgeStyle;exitX=0.792;exitY=0.483;exitDx=0;exitDy=0;exitPerimeter=0;entryX=0.456;entryY=0.357;entryDx=0;entryDy=0;entryPerimeter=0;fillColor=#d5e8d4;gradientColor=#97d077;strokeColor=#82b366;dashPattern=1 2;" parent="1" target="feDQqr2N-nm7LxGxzfz5-34" edge="1">
          <mxGeometry width="50" height="50" relative="1" as="geometry">
            <mxPoint x="59.59999999999991" y="80.00000000000009" as="sourcePoint" />
            <mxPoint x="700" y="75.85" as="targetPoint" />
            <Array as="points">
              <mxPoint x="60" y="-30" />
              <mxPoint x="700" y="-30" />
              <mxPoint x="700" y="98" />
            </Array>
          </mxGeometry>
        </mxCell>
        <mxCell id="feDQqr2N-nm7LxGxzfz5-99" value="Account [Account Name] has been&lt;div&gt;Disabled&lt;/div&gt;" style="endArrow=none;dashed=1;html=1;dashPattern=1 3;strokeWidth=2;rounded=0;fillColor=#d5e8d4;gradientColor=#97d077;strokeColor=#82b366;" parent="1" target="feDQqr2N-nm7LxGxzfz5-34" edge="1">
          <mxGeometry width="50" height="50" relative="1" as="geometry">
            <mxPoint x="710" y="280" as="sourcePoint" />
            <mxPoint x="550" y="110" as="targetPoint" />
          </mxGeometry>
        </mxCell>
        <mxCell id="feDQqr2N-nm7LxGxzfz5-100" value="Succesful Authentication" style="endArrow=none;dashed=1;html=1;dashPattern=1 3;strokeWidth=2;rounded=0;entryX=1.017;entryY=0.728;entryDx=0;entryDy=0;entryPerimeter=0;fillColor=#dae8fc;gradientColor=#7ea6e0;strokeColor=#6c8ebf;" parent="1" source="TBYeUWe64WOZgzRcPuD7-7" target="TBYeUWe64WOZgzRcPuD7-4" edge="1">
          <mxGeometry width="50" height="50" relative="1" as="geometry">
            <mxPoint x="330" y="240" as="sourcePoint" />
            <mxPoint x="380" y="190" as="targetPoint" />
          </mxGeometry>
        </mxCell>
        <mxCell id="feDQqr2N-nm7LxGxzfz5-101" value="Challenge- Enrich Public Source IPs" style="text;html=1;align=center;verticalAlign=middle;resizable=0;points=[];autosize=1;strokeColor=none;fillColor=none;" parent="1" vertex="1">
          <mxGeometry x="700" y="430" width="220" height="30" as="geometry" />
        </mxCell>
        <mxCell id="feDQqr2N-nm7LxGxzfz5-102" value="Do Nothing" style="whiteSpace=wrap;html=1;" parent="1" vertex="1">
          <mxGeometry x="1090" y="370" width="120" height="60" as="geometry" />
        </mxCell>
        <mxCell id="feDQqr2N-nm7LxGxzfz5-103" value="" style="endArrow=none;dashed=1;html=1;dashPattern=1 3;strokeWidth=2;rounded=0;fillColor=#d5e8d4;gradientColor=#97d077;strokeColor=#82b366;" parent="1" source="feDQqr2N-nm7LxGxzfz5-102" target="feDQqr2N-nm7LxGxzfz5-92" edge="1">
          <mxGeometry width="50" height="50" relative="1" as="geometry">
            <mxPoint x="330" y="240" as="sourcePoint" />
            <mxPoint x="380" y="190" as="targetPoint" />
          </mxGeometry>
        </mxCell>
        <mxCell id="feDQqr2N-nm7LxGxzfz5-104" value="List Item" style="text;strokeColor=none;fillColor=none;align=left;verticalAlign=middle;spacingLeft=4;spacingRight=4;overflow=hidden;points=[[0,0.5],[1,0.5]];portConstraint=eastwest;rotatable=0;whiteSpace=wrap;html=1;" parent="1" vertex="1">
          <mxGeometry x="590" y="310" width="80" height="30" as="geometry" />
        </mxCell>
        <mxCell id="feDQqr2N-nm7LxGxzfz5-105" value="" style="endArrow=none;dashed=1;html=1;rounded=0;edgeStyle=orthogonalEdgeStyle;" parent="1" edge="1">
          <mxGeometry width="50" height="50" relative="1" as="geometry">
            <mxPoint x="600" y="350" as="sourcePoint" />
            <mxPoint x="650" y="300" as="targetPoint" />
          </mxGeometry>
        </mxCell>
        <mxCell id="feDQqr2N-nm7LxGxzfz5-106" value="Email&amp;nbsp;&lt;div&gt;Notification&lt;/div&gt;" style="endArrow=none;dashed=1;html=1;dashPattern=1 3;strokeWidth=2;rounded=0;entryX=0.1;entryY=0.5;entryDx=0;entryDy=0;entryPerimeter=0;" parent="1" source="feDQqr2N-nm7LxGxzfz5-34" target="feDQqr2N-nm7LxGxzfz5-52" edge="1">
          <mxGeometry width="50" height="50" relative="1" as="geometry">
            <mxPoint x="600" y="350" as="sourcePoint" />
            <mxPoint x="650" y="300" as="targetPoint" />
          </mxGeometry>
        </mxCell>
      </root>
    </mxGraphModel>
  </diagram>
  <diagram id="PhW1DYrVhDZCJsCXwJCU" name="Page-2">
    <mxGraphModel grid="0" page="1" gridSize="10" guides="1" tooltips="1" connect="1" arrows="1" fold="1" pageScale="1" pageWidth="1100" pageHeight="850" math="0" shadow="0">
      <root>
        <mxCell id="0" />
        <mxCell id="1" parent="0" />
      </root>
    </mxGraphModel>
  </diagram>
</mxfile>
